# 3ds Max Wavefront OBJ Exporter v0.99 - (c)2007 guruware
# File Created: 06.06.2023 23:00:37

mtllib solidcylinder.mtl

#
# object Cylinder
#

v  0.3827 -1.0000 0.9239
v  0.3827 1.0000 0.9239
v  0.0000 1.0000 1.0000
v  0.0000 -1.0000 1.0000
v  0.7071 -1.0000 0.7071
v  0.7071 1.0000 0.7071
v  0.9239 -1.0000 0.3827
v  0.9239 1.0000 0.3827
v  1.0000 -1.0000 -0.0000
v  1.0000 1.0000 -0.0000
v  0.9239 -1.0000 -0.3827
v  0.9239 1.0000 -0.3827
v  0.7071 -1.0000 -0.7071
v  0.7071 1.0000 -0.7071
v  0.3827 -1.0000 -0.9239
v  0.3827 1.0000 -0.9239
v  0.0000 -1.0000 -1.0000
v  0.0000 1.0000 -1.0000
v  -0.3827 -1.0000 -0.9239
v  -0.3827 1.0000 -0.9239
v  -0.7071 -1.0000 -0.7071
v  -0.7071 1.0000 -0.7071
v  -0.9239 -1.0000 -0.3827
v  -0.9239 1.0000 -0.3827
v  -1.0000 -1.0000 -0.0000
v  -1.0000 1.0000 -0.0000
v  -0.9239 -1.0000 0.3827
v  -0.9239 1.0000 0.3827
v  -0.7071 -1.0000 0.7071
v  -0.7071 1.0000 0.7071
v  -0.3827 -1.0000 0.9239
v  -0.3827 1.0000 0.9239
# 32 vertices

vn 0.1951 0.0000 0.9808
vn 0.5556 0.0000 0.8315
vn 0.8315 0.0000 0.5556
vn 0.9808 0.0000 0.1951
vn 0.9808 0.0000 -0.1951
vn 0.8315 0.0000 -0.5556
vn 0.5556 0.0000 -0.8315
vn 0.1951 0.0000 -0.9808
vn -0.1951 0.0000 -0.9808
vn -0.5556 0.0000 -0.8315
vn -0.8315 0.0000 -0.5556
vn -0.9808 0.0000 -0.1951
vn -0.9808 0.0000 0.1951
vn -0.8315 0.0000 0.5556
vn -0.5556 0.0000 0.8315
vn -0.1951 0.0000 0.9808
vn 0.0000 1.0000 -0.0000
vn 0.0000 -1.0000 -0.0000
# 18 vertex normals

vt 0.0000 0.0000 0.0000
# 1 texture coords

o Cylinder
g Cylinder
usemtl Default_OBJ
s off
f 1/1/1 2/1/1 3/1/1 
f 1/1/1 3/1/1 4/1/1 
f 5/1/2 6/1/2 2/1/2 
f 5/1/2 2/1/2 1/1/2 
f 6/1/3 5/1/3 7/1/3 
f 6/1/3 7/1/3 8/1/3 
f 8/1/4 7/1/4 9/1/4 
f 8/1/4 9/1/4 10/1/4 
f 11/1/5 12/1/5 10/1/5 
f 11/1/5 10/1/5 9/1/5 
f 13/1/6 14/1/6 12/1/6 
f 13/1/6 12/1/6 11/1/6 
f 14/1/7 13/1/7 15/1/7 
f 14/1/7 15/1/7 16/1/7 
f 17/1/8 18/1/8 16/1/8 
f 17/1/8 16/1/8 15/1/8 
f 17/1/9 19/1/9 20/1/9 
f 17/1/9 20/1/9 18/1/9 
f 20/1/10 19/1/10 21/1/10 
f 20/1/10 21/1/10 22/1/10 
f 23/1/11 24/1/11 22/1/11 
f 23/1/11 22/1/11 21/1/11 
f 25/1/12 26/1/12 24/1/12 
f 25/1/12 24/1/12 23/1/12 
f 27/1/13 28/1/13 26/1/13 
f 27/1/13 26/1/13 25/1/13 
f 28/1/14 27/1/14 29/1/14 
f 28/1/14 29/1/14 30/1/14 
f 30/1/15 29/1/15 31/1/15 
f 30/1/15 31/1/15 32/1/15 
f 4/1/16 3/1/16 32/1/16 
f 4/1/16 32/1/16 31/1/16 
f 8/1/17 10/1/17 12/1/17 
f 8/1/17 12/1/17 14/1/17 
f 8/1/17 14/1/17 16/1/17 
f 8/1/17 16/1/17 18/1/17 
f 8/1/17 18/1/17 20/1/17 
f 8/1/17 20/1/17 22/1/17 
f 8/1/17 22/1/17 24/1/17 
f 8/1/17 24/1/17 26/1/17 
f 8/1/17 26/1/17 28/1/17 
f 8/1/17 28/1/17 30/1/17 
f 8/1/17 30/1/17 32/1/17 
f 8/1/17 32/1/17 3/1/17 
f 8/1/17 3/1/17 2/1/17 
f 8/1/17 2/1/17 6/1/17 
f 17/1/18 15/1/18 13/1/18 
f 17/1/18 13/1/18 11/1/18 
f 17/1/18 11/1/18 9/1/18 
f 17/1/18 9/1/18 7/1/18 
f 17/1/18 7/1/18 5/1/18 
f 17/1/18 5/1/18 1/1/18 
f 17/1/18 1/1/18 4/1/18 
f 17/1/18 4/1/18 31/1/18 
f 17/1/18 31/1/18 29/1/18 
f 17/1/18 29/1/18 27/1/18 
f 17/1/18 27/1/18 25/1/18 
f 17/1/18 25/1/18 23/1/18 
f 17/1/18 23/1/18 21/1/18 
f 17/1/18 21/1/18 19/1/18 
# 60 faces

